Coordinates
version=1
nRows=11
nColumns=40
inDegrees=yes

Units are S.I. units (second, meters, Newtons, ...)
If the header above contains a line with 'inDegrees', this indicates whether rotational values are in degrees (yes) or radians (no).

endheader
time	pelvis_tilt	pelvis_list	pelvis_rotation	pelvis_tx	pelvis_ty	pelvis_tz	hip_flexion_r	hip_adduction_r	hip_rotation_r	knee_angle_r	knee_angle_r_beta	ankle_angle_r	subtalar_angle_r	mtp_angle_r	hip_flexion_l	hip_adduction_l	hip_rotation_l	knee_angle_l	knee_angle_l_beta	ankle_angle_l	subtalar_angle_l	mtp_angle_l	lumbar_extension	lumbar_bending	lumbar_rotation	arm_flex_r	arm_add_r	arm_rot_r	elbow_flex_r	pro_sup_r	wrist_flex_r	wrist_dev_r	arm_flex_l	arm_add_l	arm_rot_l	elbow_flex_l	pro_sup_l	wrist_flex_l	wrist_dev_l
      0.59500000	     -0.63072176	     -3.63813910	     -5.55069649	      0.19686841	      0.89914454	      0.23427756	    -18.86897230	     -1.01199272	    -17.28267171	     13.54415529	      0.23639010	      6.53617491	     14.92480232	      0.00000000	     26.71458613	    -10.58990414	    -27.21289299	      8.53910111	      0.14903543	     -1.91974538	     13.31409293	      0.00000000	     -2.08996682	      2.36214864	     -1.35775029	     29.87694403	    -12.73482159	     29.87694403	     78.10244464	     44.76059105	      0.00000000	      0.00000000	     29.87694403	    -12.73482159	     29.87694403	     78.10244464	     44.76059105	      0.00000000	      0.00000000
      0.60000000	     -0.24874219	     -2.88426269	     -5.92234588	      0.20437763	      0.89945351	      0.23447797	    -19.35731007	     -2.09853108	    -16.86893078	     14.06769520	      0.24552760	      5.97404489	     14.31252718	      0.00000000	     26.04369872	     -9.93271623	    -27.36598034	      8.85382798	      0.15452845	     -2.67607725	     12.02379424	      0.00000000	     -2.44492361	      1.37789028	     -0.50038389	     29.94001477	    -12.75022915	     29.94001477	     78.06117335	     44.76931835	      0.00000000	      0.00000000	     29.94001477	    -12.75022915	     29.94001477	     78.06117335	     44.76931835	      0.00000000	      0.00000000
      0.60500000	     -0.01472826	     -2.43845805	     -5.99420413	      0.21195774	      0.89947781	      0.23382020	    -19.74237146	     -2.78178163	    -16.68781756	     14.51806972	      0.25338812	      5.07768755	     13.79948334	      0.00000000	     25.85136442	     -9.58258114	    -27.39536252	      9.76860176	      0.17049426	     -3.17869518	     10.92459298	      0.00000000	     -2.62676557	      0.82507943	     -0.13320951	     29.95733291	    -12.75445266	     29.95733291	     78.04990920	     44.77166357	      0.00000000	      0.00000000	     29.95733291	    -12.75445266	     29.95733291	     78.04990920	     44.77166357	      0.00000000	      0.00000000
      0.61000000	      0.40164193	     -1.68166017	     -6.28459220	      0.21948979	      0.90001495	      0.23383272	    -20.20997454	     -3.84863625	    -16.32728381	     15.09207667	      0.26340643	      4.26302188	     13.07386897	      0.00000000	     25.19552098	     -8.88100765	    -27.41621953	     10.18971096	      0.17784401	     -4.04354215	      9.52633335	      0.00000000	     -3.01224534	     -0.06483978	      0.80913838	     30.04339827	    -12.77539864	     30.04339827	     77.99434722	     44.78300896	      0.00000000	      0.00000000	     30.04339827	    -12.77539864	     30.04339827	     77.99434722	     44.78300896	      0.00000000	      0.00000000
      0.61500000	      0.63198894	     -1.25279615	     -6.30294749	      0.22711260	      0.90020124	      0.23309135	    -20.52162813	     -4.49330827	    -16.17066601	     15.63887485	      0.27294986	      3.16542420	     12.41068209	      0.00000000	     25.04627788	     -8.55628877	    -27.35136584	     11.23868228	      0.19615201	     -4.55027044	      8.52328107	      0.00000000	     -3.19586332	     -0.61824702	      1.11970037	     30.05639360	    -12.77855497	     30.05639360	     77.98601780	     44.78467868	      0.00000000	      0.00000000	     30.05639360	    -12.77855497	     30.05639360	     77.98601780	     44.78467868	      0.00000000	      0.00000000
      0.62000000	      0.87760870	     -0.77181736	     -6.31498235	      0.23473893	      0.90051072	      0.23233604	    -20.79639586	     -5.17428047	    -15.94223793	     16.27292024	      0.28401604	      1.99762141	     11.53331363	      0.00000000	     24.86971150	     -8.16784815	    -27.31527379	     12.26934645	      0.21414049	     -5.05372340	      7.43422226	      0.00000000	     -3.37267109	     -1.25340373	      1.48631669	     30.06859410	    -12.78151670	     30.06859410	     77.97821253	     44.78623574	      0.00000000	      0.00000000	     30.06859410	    -12.78151670	     30.06859410	     77.97821253	     44.78623574	      0.00000000	      0.00000000
      0.62500000	      1.11042165	     -0.22171587	     -6.41894357	      0.24234387	      0.90088966	      0.23189747	    -20.97715322	     -5.93375941	    -15.63447570	     16.98964262	      0.29652520	      0.81304181	     10.36182563	      0.00000000	     24.63815614	     -7.72640278	    -27.20281554	     13.20477483	      0.23046680	     -5.60320007	      6.27861858	      0.00000000	     -3.50417888	     -1.96154975	      1.93381836	     30.08647315	    -12.78585427	     30.08647315	     77.96679981	     44.78849919	      0.00000000	      0.00000000	     30.08647315	    -12.78585427	     30.08647315	     77.96679981	     44.78849919	      0.00000000	      0.00000000
      0.63000000	      1.34514197	      0.29040293	     -6.44978330	      0.24999304	      0.90136366	      0.23126808	    -21.13077426	     -6.63609509	    -15.39621945	     17.76106295	      0.30998903	     -0.52022500	      9.17857046	      0.00000000	     24.40640374	     -7.27678016	    -26.98584578	     14.11822532	      0.24640952	     -6.12138999	      5.17748226	      0.00000000	     -3.65058506	     -2.61357115	      2.36778886	     30.10489027	    -12.79031910	     30.10489027	     77.95507450	     44.79080883	      0.00000000	      0.00000000	     30.10489027	    -12.79031910	     30.10489027	     77.95507450	     44.79080883	      0.00000000	      0.00000000
      0.63500000	      1.56993364	      0.76397281	     -6.41767675	      0.25767503	      0.90188765	      0.23044856	    -21.22705828	     -7.29411825	    -15.24331928	     18.60705984	      0.32475446	     -2.00268603	      7.98252963	      0.00000000	     24.20306977	     -6.83411178	    -26.70026856	     15.06320247	      0.26290248	     -6.54712454	      4.13122050	      0.00000000	     -3.79563347	     -3.18490785	      2.73406783	     30.12075585	    -12.79416269	     30.12075585	     77.94499878	     44.79278082	      0.00000000	      0.00000000	     30.12075585	    -12.79416269	     30.12075585	     77.94499878	     44.79278082	      0.00000000	      0.00000000
      0.64000000	      1.73567710	      1.22616076	     -6.38510165	      0.26527715	      0.90239506	      0.22963282	    -21.17133507	     -7.91322336	    -14.94760979	     19.61351183	      0.34232036	     -3.42113285	      6.45768136	      0.00000000	     23.98211253	     -6.32916213	    -26.18872791	     15.78192054	      0.27544648	     -7.03049199	      2.89963907	      0.00000000	     -3.87032542	     -3.71292415	      3.11684162	     30.16019844	    -12.80370727	     30.16019844	     77.92005204	     44.79761147	      0.00000000	      0.00000000	     30.16019844	    -12.80370727	     30.16019844	     77.92005204	     44.79761147	      0.00000000	      0.00000000
      0.64500000	      1.90737970	      1.63968061	     -6.22560575	      0.27303509	      0.90295032	      0.22847476	    -21.12661287	     -8.48643795	    -14.96791487	     20.60694266	      0.35965900	     -5.14911937	      5.24169869	      0.00000000	     23.84493699	     -5.88317233	    -25.79140848	     16.74740618	      0.29229738	     -7.25958561	      2.02719272	      0.00000000	     -3.95689859	     -4.19403455	      3.37075945	     30.17645327	    -12.80763623	     30.17645327	     77.90981287	     44.79957360	      0.00000000	      0.00000000	     30.17645327	    -12.80763623	     30.17645327	     77.90981287	     44.79957360	      0.00000000	      0.00000000
